<?xml version="1.0" ?><!DOCTYPE svg  PUBLIC '-//W3C//DTD SVG 1.1//EN'  'http://www.w3.org/Graphics/SVG/1.1/DTD/svg11.dtd'><svg enable-background="new 0 0 64 64" height="64px" id="Layer_1" version="1.1" viewBox="0 0 64 64" width="64px" xml:space="preserve" xmlns="http://www.w3.org/2000/svg" xmlns:xlink="http://www.w3.org/1999/xlink"><g id="laptop_1_"><g><g><path d="M36,47H2v2c0,1.104,0.896,2,2,2h32V47z" fill="#E0E0E0"/></g><g><polygon fill="#EEEEEE" points="36,39 8,39 7.6,38.95 1.6,47.075 2,48 23.793,48 24.646,48.854 25,49 36,49    "/></g><g><path d="M36,19c0-3.309,2.691-6,6-6h12V7c0-1.104-0.896-2-2-2H10C8.896,5,8,5.896,8,7v32h28V19z" fill="#E0E0E0"/></g><g><path d="M36,19c0-3.309,2.691-6,6-6h9V8H10v28h26V19z" fill="#1DE9B6"/></g><g><rect fill="#FFFFFF" height="1" width="26" x="10" y="36"/></g><g><linearGradient gradientUnits="userSpaceOnUse" id="SVGID_1_" x1="12.7305" x2="29.957" y1="3.8467" y2="33.684"><stop offset="0" style="stop-color:#FFFFFF;stop-opacity:0.5"/><stop offset="1" style="stop-color:#FFFFFF;stop-opacity:0"/></linearGradient><polygon fill="url(#SVGID_1_)" points="20.75,39 38,6 9,6 9,39    "/></g><g><polygon fill="#9E9E9E" points="36,42 11.25,42 9,44 36,44    "/></g><g><polygon fill="#37474F" points="36,35 11,35 11,8 51,8 51,13 52,13 52,7 10,7 10,36 36,36    "/><path d="M36,50H4c-0.552,0-1-0.449-1-1v-1h20.586l0.707,0.707L25,49h11v-1H25l-1-1H3.25l5.25-7H36v-1H9V7     c0-0.551,0.448-1,1-1h42c0.552,0,1,0.449,1,1v6h2V7c0-1.654-1.346-3-3-3H10C8.346,4,7,5.346,7,7v31.666l-6,8V49     c0,1.654,1.346,3,3,3h32V50z" fill="#37474F"/><path d="M36,44H10l1.5-2H36v-1H11l-2.4,3.2C8.269,44.642,8.447,45,9,45h27V44z" fill="#37474F"/></g></g><g><g><g><path d="M62,56c0,2.75-2.25,5-5,5H43c-2.75,0-5-2.25-5-5V20c0-2.75,2.25-5,5-5h14c2.75,0,5,2.25,5,5V56z" fill="#FF5252"/></g></g><g><path d="M63,57c0,2.2-1.8,4-4,4H43c-2.2,0-4-1.8-4-4V19c0-2.2,1.8-4,4-4h16c2.2,0,4,1.8,4,4V57z" fill="#FDD835"/></g><g><g><rect fill="#80DEEA" height="32" width="19" x="40.5" y="21.5"/></g></g><g><circle cx="50" cy="57" fill="#FFF176" r="1.5"/></g><g><rect fill="#FFEB3B" height="1" width="22" x="39" y="16"/></g><g><linearGradient gradientUnits="userSpaceOnUse" id="SVGID_2_" x1="59" x2="38" y1="35.5" y2="35.5"><stop offset="0" style="stop-color:#FFFFFF;stop-opacity:0.2"/><stop offset="1" style="stop-color:#FFFFFF;stop-opacity:0"/></linearGradient><path d="M59,15H41c-1.517,0-3,1.483-3,3v38L59,15z" fill="url(#SVGID_2_)"/></g><g><g><g><rect fill="#37474F" height="1" width="1" x="46" y="18"/></g><g><g><path d="M50,56c0.551,0,1,0.449,1,1s-0.449,1-1,1s-1-0.449-1-1S49.449,56,50,56L50,56z M50,55        c-1.104,0-2,0.896-2,2s0.896,2,2,2s2-0.896,2-2S51.104,55,50,55L50,55z" fill="#37474F"/></g></g><g><path d="M59,22v31H41V22H59L59,22z M60,21H40v33h20V21L60,21z" fill="#37474F"/></g><g><rect fill="#37474F" height="1" width="4" x="48" y="18"/></g></g><g><path d="M58,62H42c-2.757,0-5-2.243-5-5V19c0-2.757,2.243-5,5-5h16c2.757,0,5,2.243,5,5v38      C63,59.757,60.757,62,58,62z M42,16c-1.654,0-3,1.346-3,3v38c0,1.654,1.346,3,3,3h16c1.654,0,3-1.346,3-3V19      c0-1.654-1.346-3-3-3H42z" fill="#37474F"/></g></g></g></g></svg>