<?xml version="1.0" ?><!DOCTYPE svg  PUBLIC '-//W3C//DTD SVG 1.1//EN'
        'http://www.w3.org/Graphics/SVG/1.1/DTD/svg11.dtd'>
<svg height="100px" style="enable-background:new 0 0 100 100;" version="1.1" viewBox="0 0 100 100" width="100px" xml:space="preserve" xmlns="http://www.w3.org/2000/svg" ><style type="text/css">
<![CDATA[
	.st0{fill:#B3B3B3;}
	.st1{fill:#1A1A1A;}
	.st2{fill:#F2F2F2;}
	.st3{fill:#2E2E2E;}
	.st4{fill:none;}
	.st5{fill:#666666;}
	.st6{display:inline;}
	.st7{display:none;}
]]>
</style><g class="st7" id="Layer_1"/><g id="Layer_2"><g><g><path class="st2" d="M28.5,87.5c0,3.8,3.1,6.9,6.9,6.9h29.1c3.8,0,6.9-3.1,6.9-6.9v-75c0-3.8-3.1-6.9-6.9-6.9H35.5     c-3.8,0-6.9,3.1-6.9,6.9V87.5z"/><path class="st0" d="M64.5,5.6c3.8,0,6.9,3.1,6.9,6.9v75c0,3.8-3.1,6.9-6.9,6.9H35.5c-3.8,0-6.9-3.1-6.9-6.9v-75     c0-3.8,3.1-6.9,6.9-6.9H64.5 M64.5,5H35.5C31.3,5,28,8.4,28,12.5v75c0,4.1,3.4,7.5,7.5,7.5h29.1c4.1,0,7.5-3.4,7.5-7.5v-75     C72,8.4,68.7,5,64.5,5L64.5,5z"/><rect class="st3" height="75.1" width="40.8" x="29.6" y="12.7"/></g><g><path class="st5" d="M57.1,11.6c0,0.3-0.2,0.5-0.5,0.5l0,0c-0.3,0-0.5-0.2-0.5-0.5V9.4c0-0.3,0.2-0.5,0.5-0.5l0,0     c0.3,0,0.5,0.2,0.5,0.5V11.6z"/><g><circle class="st3" cx="59.8" cy="10.4" r="1.4"/><circle class="st5" cx="59.8" cy="10.4" r="0.6"/></g><path class="st5" d="M61.2,89.5H61v-0.2h0.2V89.5z M60.5,89.5h-0.2v-0.2h0.2V89.5z M59.9,89.5h-0.2v-0.2h0.2V89.5z M59.2,89.5H59     v-0.2h0.2V89.5z M58.6,89.5h-0.2v-0.2h0.2V89.5z M57.9,89.5h-0.2v-0.2h0.2V89.5z M57.3,89.5h-0.2v-0.2h0.2V89.5z M56.6,89.5h-0.2     v-0.2h0.2V89.5z M56,89.5h-0.2v-0.2H56V89.5z M55.3,89.5h-0.2v-0.2h0.2V89.5z M54.7,89.5h-0.2v-0.2h0.2V89.5z M54,89.5h-0.2v-0.2     H54V89.5z M53.4,89.5h-0.2v-0.2h0.2V89.5z M52.7,89.5h-0.2v-0.2h0.2V89.5z M52.1,89.5h-0.2v-0.2h0.2V89.5z M51.4,89.5h-0.2v-0.2     h0.2V89.5z M50.8,89.5h-0.2v-0.2h0.2V89.5z M50.1,89.5h-0.2v-0.2h0.2V89.5z M49.5,89.5h-0.2v-0.2h0.2V89.5z M48.8,89.5h-0.2v-0.2     h0.2V89.5z M48.2,89.5h-0.2v-0.2h0.2V89.5z M47.5,89.5h-0.2v-0.2h0.2V89.5z M46.9,89.5h-0.2v-0.2h0.2V89.5z M46.2,89.5H46v-0.2     h0.2V89.5z M45.5,89.5h-0.2v-0.2h0.2V89.5z M44.9,89.5h-0.2v-0.2h0.2V89.5z M44.2,89.5H44v-0.2h0.2V89.5z M43.6,89.5h-0.2v-0.2     h0.2V89.5z M42.9,89.5h-0.2v-0.2h0.2V89.5z M42.3,89.5h-0.2v-0.2h0.2V89.5z M41.6,89.5h-0.2v-0.2h0.2V89.5z M41,89.5h-0.2v-0.2     H41V89.5z M40.3,89.5h-0.2v-0.2h0.2V89.5z M39.7,89.5h-0.2v-0.2h0.2V89.5z M39,89.5h-0.2v-0.2H39V89.5z M61.2,90.3H61v-0.2h0.2     V90.3z M60.5,90.3h-0.2v-0.2h0.2V90.3z M59.9,90.3h-0.2v-0.2h0.2V90.3z M59.2,90.3H59v-0.2h0.2V90.3z M58.6,90.3h-0.2v-0.2h0.2     V90.3z M57.9,90.3h-0.2v-0.2h0.2V90.3z M57.3,90.3h-0.2v-0.2h0.2V90.3z M56.6,90.3h-0.2v-0.2h0.2V90.3z M56,90.3h-0.2v-0.2H56     V90.3z M55.3,90.3h-0.2v-0.2h0.2V90.3z M54.7,90.3h-0.2v-0.2h0.2V90.3z M54,90.3h-0.2v-0.2H54V90.3z M53.4,90.3h-0.2v-0.2h0.2     V90.3z M52.7,90.3h-0.2v-0.2h0.2V90.3z M52.1,90.3h-0.2v-0.2h0.2V90.3z M51.4,90.3h-0.2v-0.2h0.2V90.3z M50.8,90.3h-0.2v-0.2h0.2     V90.3z M50.1,90.3h-0.2v-0.2h0.2V90.3z M49.5,90.3h-0.2v-0.2h0.2V90.3z M48.8,90.3h-0.2v-0.2h0.2V90.3z M48.2,90.3h-0.2v-0.2h0.2     V90.3z M47.5,90.3h-0.2v-0.2h0.2V90.3z M46.9,90.3h-0.2v-0.2h0.2V90.3z M46.2,90.3H46v-0.2h0.2V90.3z M45.5,90.3h-0.2v-0.2h0.2     V90.3z M44.9,90.3h-0.2v-0.2h0.2V90.3z M44.2,90.3H44v-0.2h0.2V90.3z M43.6,90.3h-0.2v-0.2h0.2V90.3z M42.9,90.3h-0.2v-0.2h0.2     V90.3z M42.3,90.3h-0.2v-0.2h0.2V90.3z M41.6,90.3h-0.2v-0.2h0.2V90.3z M41,90.3h-0.2v-0.2H41V90.3z M40.3,90.3h-0.2v-0.2h0.2     V90.3z M39.7,90.3h-0.2v-0.2h0.2V90.3z M39,90.3h-0.2v-0.2H39V90.3z M61.2,91.1H61v-0.2h0.2V91.1z M60.5,91.1h-0.2v-0.2h0.2V91.1     z M59.9,91.1h-0.2v-0.2h0.2V91.1z M59.2,91.1H59v-0.2h0.2V91.1z M58.6,91.1h-0.2v-0.2h0.2V91.1z M57.9,91.1h-0.2v-0.2h0.2V91.1z      M57.3,91.1h-0.2v-0.2h0.2V91.1z M56.6,91.1h-0.2v-0.2h0.2V91.1z M56,91.1h-0.2v-0.2H56V91.1z M55.3,91.1h-0.2v-0.2h0.2V91.1z      M54.7,91.1h-0.2v-0.2h0.2V91.1z M54,91.1h-0.2v-0.2H54V91.1z M53.4,91.1h-0.2v-0.2h0.2V91.1z M52.7,91.1h-0.2v-0.2h0.2V91.1z      M52.1,91.1h-0.2v-0.2h0.2V91.1z M51.4,91.1h-0.2v-0.2h0.2V91.1z M50.8,91.1h-0.2v-0.2h0.2V91.1z M50.1,91.1h-0.2v-0.2h0.2V91.1z      M49.5,91.1h-0.2v-0.2h0.2V91.1z M48.8,91.1h-0.2v-0.2h0.2V91.1z M48.2,91.1h-0.2v-0.2h0.2V91.1z M47.5,91.1h-0.2v-0.2h0.2V91.1z      M46.9,91.1h-0.2v-0.2h0.2V91.1z M46.2,91.1H46v-0.2h0.2V91.1z M45.5,91.1h-0.2v-0.2h0.2V91.1z M44.9,91.1h-0.2v-0.2h0.2V91.1z      M44.2,91.1H44v-0.2h0.2V91.1z M43.6,91.1h-0.2v-0.2h0.2V91.1z M42.9,91.1h-0.2v-0.2h0.2V91.1z M42.3,91.1h-0.2v-0.2h0.2V91.1z      M41.6,91.1h-0.2v-0.2h0.2V91.1z M41,91.1h-0.2v-0.2H41V91.1z M40.3,91.1h-0.2v-0.2h0.2V91.1z M39.7,91.1h-0.2v-0.2h0.2V91.1z      M39,91.1h-0.2v-0.2H39V91.1z M54.6,9.7h-0.2V9.5h0.2V9.7z M54,9.7h-0.2V9.5H54V9.7z M53.3,9.7h-0.2V9.5h0.2V9.7z M52.7,9.7h-0.2     V9.5h0.2V9.7z M52,9.7h-0.2V9.5H52V9.7z M51.4,9.7h-0.2V9.5h0.2V9.7z M50.7,9.7h-0.2V9.5h0.2V9.7z M50.1,9.7h-0.2V9.5h0.2V9.7z      M49.4,9.7h-0.2V9.5h0.2V9.7z M48.8,9.7h-0.2V9.5h0.2V9.7z M48.1,9.7h-0.2V9.5h0.2V9.7z M47.5,9.7h-0.2V9.5h0.2V9.7z M46.8,9.7     h-0.2V9.5h0.2V9.7z M46.2,9.7h-0.2V9.5h0.2V9.7z M45.5,9.7h-0.2V9.5h0.2V9.7z M44.9,9.7h-0.2V9.5h0.2V9.7z M44.2,9.7H44V9.5h0.2     V9.7z M43.6,9.7h-0.2V9.5h0.2V9.7z M42.9,9.7h-0.2V9.5h0.2V9.7z M42.3,9.7H42V9.5h0.2V9.7z M41.6,9.7h-0.2V9.5h0.2V9.7z M41,9.7     h-0.2V9.5H41V9.7z M40.3,9.7h-0.2V9.5h0.2V9.7z M39.7,9.7h-0.2V9.5h0.2V9.7z M39,9.7h-0.2V9.5H39V9.7z M54.6,10.5h-0.2v-0.2h0.2     V10.5z M54,10.5h-0.2v-0.2H54V10.5z M53.3,10.5h-0.2v-0.2h0.2V10.5z M52.7,10.5h-0.2v-0.2h0.2V10.5z M52,10.5h-0.2v-0.2H52V10.5z      M51.4,10.5h-0.2v-0.2h0.2V10.5z M50.7,10.5h-0.2v-0.2h0.2V10.5z M50.1,10.5h-0.2v-0.2h0.2V10.5z M49.4,10.5h-0.2v-0.2h0.2V10.5z      M48.8,10.5h-0.2v-0.2h0.2V10.5z M48.1,10.5h-0.2v-0.2h0.2V10.5z M47.5,10.5h-0.2v-0.2h0.2V10.5z M46.8,10.5h-0.2v-0.2h0.2V10.5z      M46.2,10.5h-0.2v-0.2h0.2V10.5z M45.5,10.5h-0.2v-0.2h0.2V10.5z M44.9,10.5h-0.2v-0.2h0.2V10.5z M44.2,10.5H44v-0.2h0.2V10.5z      M43.6,10.5h-0.2v-0.2h0.2V10.5z M42.9,10.5h-0.2v-0.2h0.2V10.5z M42.3,10.5H42v-0.2h0.2V10.5z M41.6,10.5h-0.2v-0.2h0.2V10.5z      M41,10.5h-0.2v-0.2H41V10.5z M40.3,10.5h-0.2v-0.2h0.2V10.5z M39.7,10.5h-0.2v-0.2h0.2V10.5z M39,10.5h-0.2v-0.2H39V10.5z      M54.6,11.3h-0.2v-0.2h0.2V11.3z M54,11.3h-0.2v-0.2H54V11.3z M53.3,11.3h-0.2v-0.2h0.2V11.3z M52.7,11.3h-0.2v-0.2h0.2V11.3z      M52,11.3h-0.2v-0.2H52V11.3z M51.4,11.3h-0.2v-0.2h0.2V11.3z M50.7,11.3h-0.2v-0.2h0.2V11.3z M50.1,11.3h-0.2v-0.2h0.2V11.3z      M49.4,11.3h-0.2v-0.2h0.2V11.3z M48.8,11.3h-0.2v-0.2h0.2V11.3z M48.1,11.3h-0.2v-0.2h0.2V11.3z M47.5,11.3h-0.2v-0.2h0.2V11.3z      M46.8,11.3h-0.2v-0.2h0.2V11.3z M46.2,11.3h-0.2v-0.2h0.2V11.3z M45.5,11.3h-0.2v-0.2h0.2V11.3z M44.9,11.3h-0.2v-0.2h0.2V11.3z      M44.2,11.3H44v-0.2h0.2V11.3z M43.6,11.3h-0.2v-0.2h0.2V11.3z M42.9,11.3h-0.2v-0.2h0.2V11.3z M42.3,11.3H42v-0.2h0.2V11.3z      M41.6,11.3h-0.2v-0.2h0.2V11.3z M41,11.3h-0.2v-0.2H41V11.3z M40.3,11.3h-0.2v-0.2h0.2V11.3z M39.7,11.3h-0.2v-0.2h0.2V11.3z      M39,11.3h-0.2v-0.2H39V11.3z"/></g></g></g></svg>