<?xml version="1.0" ?><!DOCTYPE svg  PUBLIC '-//W3C//DTD SVG 1.1//EN'
        'http://www.w3.org/Graphics/SVG/1.1/DTD/svg11.dtd'>
<svg height="100px" style="enable-background:new 0 0 100 100;" version="1.1" viewBox="0 0 100 100" width="100px" xml:space="preserve" xmlns="http://www.w3.org/2000/svg" ><style type="text/css">
<![CDATA[
	.st0{fill:#B3B3B3;}
	.st1{fill:#1A1A1A;}
	.st2{fill:#F2F2F2;}
	.st3{fill:#2E2E2E;}
	.st4{fill:none;}
	.st5{fill:#666666;}
	.st6{display:inline;}
	.st7{display:none;}
]]>
</style><g class="st7" id="Layer_1"/><g id="Layer_2"><g><g><path class="st2" d="M28.665,11.734c0-3.398,2.781-6.179,6.179-6.179H65.49c3.398,0,6.179,2.78,6.179,6.179v76.531     c0,3.398-2.781,6.179-6.179,6.179H34.844c-3.398,0-6.179-2.781-6.179-6.179V11.734z"/><path class="st0" d="M65.49,5.556c3.398,0,6.179,2.78,6.179,6.179v76.531c0,3.398-2.781,6.179-6.179,6.179H34.844     c-3.398,0-6.179-2.781-6.179-6.179V11.734c0-3.398,2.781-6.179,6.179-6.179H65.49 M65.49,5H34.844     c-3.714,0-6.734,3.021-6.734,6.734v76.531c0,3.713,3.021,6.734,6.734,6.734H65.49c3.714,0,6.734-3.021,6.734-6.734V11.734     C72.224,8.021,69.204,5,65.49,5L65.49,5z"/><rect class="st3" height="67.841" width="39.506" x="30.414" y="16.223"/></g><path class="st0" d="M50,92.5c-1.654,0-3-1.346-3-3s1.346-3,3-3s3,1.347,3,3S51.654,92.5,50,92.5z M50,86.806    c-1.486,0-2.695,1.208-2.695,2.695c0,1.486,1.208,2.695,2.695,2.695c1.485,0,2.695-1.209,2.695-2.695    C52.695,88.014,51.485,86.806,50,86.806z"/><g><g><circle class="st3" cx="43.358" cy="11.313" r="0.705"/><circle class="st5" cx="43.358" cy="11.313" r="0.375"/></g><circle class="st3" cx="50.167" cy="8.389" r="0.54"/><path class="st3" d="M53.643,11.313c0,0.207-0.186,0.376-0.413,0.376h-6.126c-0.227,0-0.413-0.169-0.413-0.376     c0-0.206,0.186-0.375,0.413-0.375h6.126C53.457,10.938,53.643,11.106,53.643,11.313z"/></g></g></g></svg>