<?xml version="1.0" ?><!DOCTYPE svg  PUBLIC '-//W3C//DTD SVG 1.1//EN'
        'http://www.w3.org/Graphics/SVG/1.1/DTD/svg11.dtd'>
<svg height="100px" style="enable-background:new 0 0 100 100;" version="1.1" viewBox="0 0 100 100" width="100px" xml:space="preserve" xmlns="http://www.w3.org/2000/svg" xmlns:xlink="http://www.w3.org/1999/xlink"><style type="text/css">
<![CDATA[
	.st0{fill:#B3B3B3;}
	.st1{fill:#1A1A1A;}
	.st2{fill:#F2F2F2;}
	.st3{fill:#2E2E2E;}
	.st4{fill:none;}
	.st5{fill:#666666;}
	.st6{display:inline;}
	.st7{display:none;}
]]>
</style><g class="st7" id="Layer_1"/><g id="Layer_2"><g><g><path class="st2" d="M65.7,5.6H34.3c-3.4,0-6.2,2.8-6.2,6.2v76.5c0,1.7,0.7,3.3,1.9,4.4c1.1,1.1,2.6,1.8,4.3,1.8h31.4     c1.7,0,3.2-0.7,4.3-1.8c1.1-1.1,1.9-2.7,1.9-4.4V11.7C71.9,8.3,69.1,5.6,65.7,5.6z"/><path class="st0" d="M65.7,5.6c3.4,0,6.2,2.8,6.2,6.2v76.5c0,1.7-0.7,3.3-1.9,4.4c-1.1,1.1-2.6,1.8-4.3,1.8H34.3     c-1.7,0-3.2-0.7-4.3-1.8c-1.1-1.1-1.9-2.7-1.9-4.4V11.7c0-3.4,2.8-6.2,6.2-6.2H65.7 M65.7,5H34.3c-3.7,0-6.7,3-6.7,6.7v76.5     c0,1.8,0.7,3.5,2,4.8c1.3,1.2,2.9,1.9,4.7,1.9h31.4c1.8,0,3.5-0.7,4.7-1.9c1.3-1.3,2-3,2-4.8V11.7C72.5,8,69.4,5,65.7,5L65.7,5z"/><path class="st3" d="M71,87.6H29V12.4c0-3.2,2.6-5.7,5.7-5.7h30.5c3.2,0,5.7,2.6,5.7,5.7V87.6z"/></g><path class="st1" d="M54.1,9.3c0,0.3-0.3,0.6-0.6,0.6h-7.1c-0.3,0-0.6-0.3-0.6-0.6l0,0c0-0.3,0.3-0.6,0.6-0.6h7.1    C53.9,8.7,54.1,9,54.1,9.3L54.1,9.3z"/><g><circle class="st1" cx="35.9" cy="9" r="1"/><circle class="st3" cx="35.9" cy="9" r="0.5"/></g></g></g></svg>