<?xml version="1.0" ?><!DOCTYPE svg  PUBLIC '-//W3C//DTD SVG 1.1//EN'
        'http://www.w3.org/Graphics/SVG/1.1/DTD/svg11.dtd'>
<svg height="100px" style="enable-background:new 0 0 100 100;" version="1.1" viewBox="0 0 100 100" width="100px" xml:space="preserve" xmlns="http://www.w3.org/2000/svg" xmlns:xlink="http://www.w3.org/1999/xlink"><style type="text/css">
<![CDATA[
	.st0{fill:#B3B3B3;}
	.st1{fill:#1A1A1A;}
	.st2{fill:#F2F2F2;}
	.st3{fill:#2E2E2E;}
	.st4{fill:none;}
	.st5{fill:#666666;}
	.st6{display:inline;}
	.st7{display:none;}
]]>
</style><g class="st7" id="Layer_1"/><g id="Layer_2"><g><g><path class="st2" d="M71.4,90.1c0,2.4-1.9,4.3-4.3,4.3H32.9c-2.4,0-4.3-1.9-4.3-4.3V9.9c0-2.4,1.9-4.3,4.3-4.3h34.1     c2.4,0,4.3,1.9,4.3,4.3V90.1z"/><path class="st0" d="M67.1,5.6c2.4,0,4.3,1.9,4.3,4.3v80.2c0,2.4-1.9,4.3-4.3,4.3H32.9c-2.4,0-4.3-1.9-4.3-4.3V9.9     c0-2.4,1.9-4.3,4.3-4.3H67.1 M67.1,5H32.9C30.2,5,28,7.2,28,9.9v80.2c0,2.7,2.2,4.9,4.9,4.9h34.1c2.7,0,4.9-2.2,4.9-4.9V9.9     C72,7.2,69.8,5,67.1,5L67.1,5z"/><rect class="st3" height="71.4" width="39.7" x="30.2" y="14"/></g><path class="st0" d="M52.1,92.1h-4.2c-1.3,0-2.4-1.1-2.4-2.4c0-1.3,1.1-2.4,2.4-2.4h4.2c1.3,0,2.4,1.1,2.4,2.4    C54.5,91,53.4,92.1,52.1,92.1z M47.9,87.6c-1.2,0-2.1,0.9-2.1,2.1c0,1.1,0.9,2.1,2.1,2.1h4.2c1.1,0,2.1-0.9,2.1-2.1    c0-1.2-0.9-2.1-2.1-2.1H47.9z"/><circle class="st3" cx="38.2" cy="9" r="1"/><circle class="st5" cx="38.2" cy="9" r="0.4"/><path class="st5" d="M53.4,8.9c0-0.3-0.2-0.5-0.5-0.5h-5.8c-0.3,0-0.5,0.2-0.5,0.5l0,0c0,0.3,0.2,0.5,0.5,0.5h5.8    C53.2,9.5,53.4,9.2,53.4,8.9L53.4,8.9z"/></g></g></svg>