<?xml version="1.0" ?><!DOCTYPE svg  PUBLIC '-//W3C//DTD SVG 1.1//EN'
        'http://www.w3.org/Graphics/SVG/1.1/DTD/svg11.dtd'>
<svg height="100px" style="enable-background:new 0 0 100 100;" version="1.1" viewBox="0 0 100 100" width="100px" xml:space="preserve" xmlns="http://www.w3.org/2000/svg" ><style type="text/css">
<![CDATA[
	.st0{fill:#B3B3B3;}
	.st1{fill:#1A1A1A;}
	.st2{fill:#F2F2F2;}
	.st3{fill:#2E2E2E;}
	.st4{fill:none;}
	.st5{fill:#666666;}
	.st6{display:inline;}
	.st7{display:none;}
]]>
</style><g class="st7" id="Layer_1"/><g id="Layer_2"><g><g><path class="st2" d="M71.5,88.5c0,3.3-2.7,5.9-5.9,5.9H34.4c-3.3,0-5.9-2.7-5.9-5.9v-77c0-3.3,2.7-5.9,5.9-5.9h31.1     c3.3,0,5.9,2.7,5.9,5.9V88.5z"/><path class="st0" d="M65.6,5.6c3.3,0,5.9,2.7,5.9,5.9v77c0,3.3-2.7,5.9-5.9,5.9H34.4c-3.3,0-5.9-2.7-5.9-5.9v-77     c0-3.3,2.7-5.9,5.9-5.9H65.6 M65.6,5H34.4C30.9,5,28,7.9,28,11.5v77c0,3.6,2.9,6.5,6.5,6.5h31.1c3.6,0,6.5-2.9,6.5-6.5v-77     C72,7.9,69.1,5,65.6,5L65.6,5z"/><rect class="st3" height="73.1" width="41.5" x="29.3" y="13.6"/></g><g><path class="st5" d="M42,8.8c0,0.4-0.3,0.7-0.7,0.7c-0.4,0-0.7-0.3-0.7-0.7c0-0.4,0.3-0.7,0.7-0.7C41.7,8.1,42,8.4,42,8.8z      M43.3,8.1c-0.4,0-0.7,0.3-0.7,0.7c0,0.4,0.3,0.7,0.7,0.7c0.4,0,0.7-0.3,0.7-0.7C44,8.4,43.7,8.1,43.3,8.1z"/><g><path class="st5" d="M54.2,8.8c0,0.3-0.2,0.5-0.5,0.5h-7.4c-0.3,0-0.5-0.2-0.5-0.5l0,0c0-0.3,0.2-0.5,0.5-0.5h7.4      C54,8.3,54.2,8.5,54.2,8.8L54.2,8.8z"/><path class="st3" d="M53.6,8.8c0,0.1,0,0.1-0.1,0.1c-0.1,0-0.1,0-0.1-0.1c0-0.1,0-0.1,0.1-0.1C53.5,8.7,53.6,8.7,53.6,8.8z       M53.1,8.8c0,0.1,0,0.1-0.1,0.1c-0.1,0-0.1,0-0.1-0.1c0-0.1,0-0.1,0.1-0.1C53.1,8.7,53.1,8.7,53.1,8.8z M52.7,8.8      c0,0.1,0,0.1-0.1,0.1s-0.1,0-0.1-0.1c0-0.1,0-0.1,0.1-0.1S52.7,8.7,52.7,8.8z M52.3,8.8c0,0.1,0,0.1-0.1,0.1      c-0.1,0-0.1,0-0.1-0.1c0-0.1,0-0.1,0.1-0.1C52.2,8.7,52.3,8.7,52.3,8.8z M51.8,8.8c0,0.1,0,0.1-0.1,0.1c-0.1,0-0.1,0-0.1-0.1      c0-0.1,0-0.1,0.1-0.1C51.8,8.7,51.8,8.7,51.8,8.8z M51.4,8.8c0,0.1,0,0.1-0.1,0.1c-0.1,0-0.1,0-0.1-0.1c0-0.1,0-0.1,0.1-0.1      C51.4,8.7,51.4,8.7,51.4,8.8z M51,8.8c0,0.1,0,0.1-0.1,0.1c-0.1,0-0.1,0-0.1-0.1c0-0.1,0-0.1,0.1-0.1C50.9,8.7,51,8.7,51,8.8z       M50.5,8.8c0,0.1,0,0.1-0.1,0.1s-0.1,0-0.1-0.1c0-0.1,0-0.1,0.1-0.1S50.5,8.7,50.5,8.8z M50.1,8.8c0,0.1,0,0.1-0.1,0.1      c-0.1,0-0.1,0-0.1-0.1c0-0.1,0-0.1,0.1-0.1C50.1,8.7,50.1,8.7,50.1,8.8z M49.7,8.8c0,0.1,0,0.1-0.1,0.1s-0.1,0-0.1-0.1      c0-0.1,0-0.1,0.1-0.1S49.7,8.7,49.7,8.8z M49.2,8.8c0,0.1,0,0.1-0.1,0.1c-0.1,0-0.1,0-0.1-0.1c0-0.1,0-0.1,0.1-0.1      C49.2,8.7,49.2,8.7,49.2,8.8z M48.8,8.8c0,0.1,0,0.1-0.1,0.1c-0.1,0-0.1,0-0.1-0.1c0-0.1,0-0.1,0.1-0.1      C48.8,8.7,48.8,8.7,48.8,8.8z M48.4,8.8c0,0.1,0,0.1-0.1,0.1c-0.1,0-0.1,0-0.1-0.1c0-0.1,0-0.1,0.1-0.1      C48.3,8.7,48.4,8.7,48.4,8.8z M48,8.8c0,0.1,0,0.1-0.1,0.1c-0.1,0-0.1,0-0.1-0.1c0-0.1,0-0.1,0.1-0.1C47.9,8.7,48,8.7,48,8.8z       M47.5,8.8c0,0.1,0,0.1-0.1,0.1s-0.1,0-0.1-0.1c0-0.1,0-0.1,0.1-0.1S47.5,8.7,47.5,8.8z M47.1,8.8c0,0.1,0,0.1-0.1,0.1      c-0.1,0-0.1,0-0.1-0.1c0-0.1,0-0.1,0.1-0.1C47,8.7,47.1,8.7,47.1,8.8z M46.7,8.8c0,0.1,0,0.1-0.1,0.1c-0.1,0-0.1,0-0.1-0.1      c0-0.1,0-0.1,0.1-0.1C46.6,8.7,46.7,8.7,46.7,8.8z"/></g><g><circle class="st3" cx="61" cy="9.3" r="1.2"/><circle class="st5" cx="61" cy="9.3" r="0.5"/></g></g><path class="st0" d="M53.5,88.5h-6.7c-0.8,0-1.5,0.7-1.5,1.5v1.3c0,0.8,0.7,1.5,1.5,1.5h6.7c0.8,0,1.5-0.7,1.5-1.5V90    C54.9,89.1,54.3,88.5,53.5,88.5z M54.6,91.2c0,0.6-0.5,1.1-1.1,1.1h-6.7c-0.6,0-1.1-0.5-1.1-1.1V90c0-0.6,0.5-1.1,1.1-1.1h6.7    c0.6,0,1.1,0.5,1.1,1.1V91.2z"/></g></g></svg>