<?xml version="1.0" ?><!DOCTYPE svg  PUBLIC '-//W3C//DTD SVG 1.1//EN'
        'http://www.w3.org/Graphics/SVG/1.1/DTD/svg11.dtd'>
<svg height="100px" style="enable-background:new 0 0 100 100;" version="1.1" viewBox="0 0 100 100" width="100px" xml:space="preserve" xmlns="http://www.w3.org/2000/svg" ><style type="text/css">
<![CDATA[
	.st0{fill:#B3B3B3;}
	.st1{fill:#1A1A1A;}
	.st2{fill:#F2F2F2;}
	.st3{fill:#2E2E2E;}
	.st4{fill:none;}
	.st5{fill:#666666;}
	.st6{display:inline;}
	.st7{display:none;}
]]>
</style><g class="st7" id="Layer_1"/><g id="Layer_2"><g><g><path class="st2" d="M71.8,91.9c0,1.4-1.2,2.6-2.6,2.6H30.8c-1.4,0-2.6-1.2-2.6-2.6V8.1c0-1.4,1.2-2.6,2.6-2.6h38.4     c1.4,0,2.6,1.2,2.6,2.6V91.9z"/><path class="st0" d="M69.2,5.6c1.4,0,2.6,1.2,2.6,2.6v83.7c0,1.4-1.2,2.6-2.6,2.6H30.8c-1.4,0-2.6-1.2-2.6-2.6V8.1     c0-1.4,1.2-2.6,2.6-2.6H69.2 M69.2,5H30.8c-1.7,0-3.1,1.4-3.1,3.1v83.7c0,1.7,1.4,3.1,3.1,3.1h38.4c1.7,0,3.1-1.4,3.1-3.1V8.1     C72.3,6.4,70.9,5,69.2,5L69.2,5z"/><rect class="st3" height="69.1" width="38.9" x="30.6" y="15.7"/></g><g><circle class="st3" cx="41.6" cy="11.1" r="0.8"/><circle class="st5" cx="41.6" cy="11.1" r="0.4"/></g><path class="st5" d="M57.3,6.1H42.6l-0.4-0.6h15.5L57.3,6.1z M57.3,93.9H42.6l-0.4,0.6h15.5L57.3,93.9z"/></g></g></svg>