<?xml version="1.0" ?><!DOCTYPE svg  PUBLIC '-//W3C//DTD SVG 1.1//EN'
        'http://www.w3.org/Graphics/SVG/1.1/DTD/svg11.dtd'>
<svg height="100px" style="enable-background:new 0 0 100 100;" version="1.1" viewBox="0 0 100 100" width="100px" xml:space="preserve" xmlns="http://www.w3.org/2000/svg" ><style type="text/css">
<![CDATA[
	.st0{fill:#B3B3B3;}
	.st1{fill:#1A1A1A;}
	.st2{fill:#F2F2F2;}
	.st3{fill:#2E2E2E;}
	.st4{fill:none;}
	.st5{fill:#666666;}
	.st6{display:inline;}
	.st7{display:none;}
]]>
</style><g class="st7" id="Layer_1"/><g id="Layer_2"><g><g><path class="st2" d="M72.945,93.873c0,0.315-0.258,0.571-0.572,0.571H27.627c-0.313,0-0.572-0.256-0.572-0.571V6.127     c0-0.314,0.259-0.571,0.572-0.571h44.746c0.314,0,0.572,0.257,0.572,0.571V93.873z"/><path class="st0" d="M72.373,5.556c0.314,0,0.572,0.257,0.572,0.571v87.746c0,0.315-0.258,0.571-0.572,0.571H27.627     c-0.313,0-0.572-0.256-0.572-0.571V6.127c0-0.314,0.259-0.571,0.572-0.571H72.373 M72.373,5H27.627     C27.006,5,26.5,5.506,26.5,6.127v87.746c0,0.621,0.506,1.127,1.127,1.127h44.746c0.621,0,1.127-0.506,1.127-1.127V6.127     C73.5,5.506,72.994,5,72.373,5L72.373,5z"/><path class="st3" d="M70.205,85.418c0,0.314-0.259,0.571-0.571,0.571H30.366c-0.313,0-0.571-0.257-0.571-0.571V14.582     c0-0.314,0.259-0.571,0.571-0.571h39.268c0.313,0,0.571,0.257,0.571,0.571V85.418z"/></g><path class="st5" d="M58.537,9.347c0,0.376-0.309,0.686-0.683,0.686H42.146c-0.374,0-0.683-0.31-0.683-0.686l0,0    c0-0.377,0.309-0.686,0.683-0.686h15.709C58.229,8.662,58.537,8.97,58.537,9.347L58.537,9.347z"/><g><circle class="st3" cx="64.282" cy="9.157" r="1.375"/><circle class="st5" cx="64.282" cy="9.157" r="0.433"/></g><path class="st0" d="M48.5,88.929l1.221-0.161v1.179H48.5V88.929z M49.722,90.072v1.178l-1.222-0.16v-1.018H49.722z     M49.864,88.733L51.5,88.5v1.429l-1.636,0.018V88.733z M51.5,90.088V91.5l-1.636-0.231v-1.196L51.5,90.088z"/></g></g></svg>