<?xml version="1.0" standalone="no"?>
<!DOCTYPE svg PUBLIC "-//W3C//DTD SVG 20010904//EN"
        "http://www.w3.org/TR/2001/REC-SVG-20010904/DTD/svg10.dtd">
<svg version="1.0" xmlns="http://www.w3.org/2000/svg"
     width="700.000000pt" height="700.000000pt" viewBox="0 0 700.000000 700.000000"
     preserveAspectRatio="xMidYMid meet">
    <metadata>
        Created by potrace 1.11, written by Peter Selinger 2001-2013
    </metadata>
    <g transform="translate(0.000000,700.000000) scale(0.100000,-0.100000)"
       fill="#000000" stroke="none">
        <path d="M1834 5519 c-16 -17 -20 -40 -22 -130 l-4 -109 -74 0 c-67 0 -74 -2
-74 -20 0 -18 7 -20 75 -20 l75 0 0 -95 0 -95 -75 0 c-73 0 -75 -1 -75 -25 0
-24 2 -25 75 -25 l75 0 0 -95 0 -95 -75 0 c-68 0 -75 -2 -75 -20 0 -18 7 -20
75 -20 l75 0 0 -95 0 -95 -75 0 c-73 0 -75 -1 -75 -25 0 -24 2 -25 75 -25 l75
0 0 -95 0 -95 -75 0 c-68 0 -75 -2 -75 -20 0 -18 7 -20 75 -20 l75 0 0 -95 0
-95 -75 0 c-73 0 -75 -1 -75 -25 0 -24 2 -25 75 -25 l75 0 0 -95 0 -95 -75 0
c-68 0 -75 -2 -75 -20 0 -18 7 -20 75 -20 l75 0 0 -95 0 -95 -75 0 c-73 0 -75
-1 -75 -25 0 -24 2 -25 75 -25 l75 0 0 -95 0 -95 -75 0 c-68 0 -75 -2 -75 -20
0 -18 7 -20 75 -20 l75 0 0 -95 0 -95 -75 0 c-73 0 -75 -1 -75 -25 0 -24 2
-25 75 -25 l75 0 0 -95 0 -95 -75 0 c-68 0 -75 -2 -75 -20 0 -18 7 -20 75 -20
l75 0 0 -95 0 -95 -75 0 c-73 0 -75 -1 -75 -25 0 -24 2 -25 75 -25 l75 0 0
-95 0 -95 -75 0 c-68 0 -75 -2 -75 -20 0 -18 7 -20 75 -20 l75 0 0 -95 0 -95
-75 0 c-73 0 -75 -1 -75 -25 0 -24 2 -25 75 -25 l75 0 0 -95 0 -95 -75 0 c-68
0 -75 -2 -75 -20 0 -18 7 -20 75 -20 l75 0 0 -95 0 -95 -75 0 c-73 0 -75 -1
-75 -25 0 -24 2 -25 74 -25 l74 0 4 -106 c3 -97 6 -108 27 -125 23 -18 70 -19
1611 -19 l1589 0 20 26 c21 27 21 32 21 865 l0 839 -31 0 -32 0 29 22 c16 12
31 25 34 28 3 3 62 50 133 103 70 54 127 104 127 111 0 8 -3 27 -6 44 l-6 30
-287 -213 c-339 -251 -1162 -871 -1378 -1038 l-153 -118 15 -29 c8 -16 15 -33
15 -38 0 -6 -53 -31 -117 -57 -110 -44 -118 -46 -128 -29 -5 10 -22 30 -36 45
l-26 27 80 104 80 103 624 469 623 470 0 1158 0 1158 -1393 0 -1394 0 -19 -21z
m1376 -1214 l0 -25 -335 0 -335 0 0 25 0 25 335 0 335 0 0 -25z m1020 -240 l0
-25 -845 0 -845 0 0 25 0 25 845 0 845 0 0 -25z m0 -250 l0 -25 -845 0 -845 0
0 25 0 25 845 0 845 0 0 -25z m0 -255 c0 -20 -7 -20 -845 -20 -838 0 -845 0
-845 20 0 20 7 20 845 20 838 0 845 0 845 -20z m0 -255 l0 -25 -845 0 -845 0
0 25 0 25 845 0 845 0 0 -25z"/>
    </g>
</svg>
