<?xml version="1.0" ?><!DOCTYPE svg  PUBLIC '-//W3C//DTD SVG 1.1//EN'
        'http://www.w3.org/Graphics/SVG/1.1/DTD/svg11.dtd'>
<svg height="100px" id="Layer_1" style="enable-background:new 0 0 100 100;" version="1.1" viewBox="0 0 100 100" width="100px" xml:space="preserve" xmlns="http://www.w3.org/2000/svg" ><style type="text/css">
<![CDATA[
	.st0{fill:#B3B3B3;}
	.st1{fill:#F2F2F2;}
	.st2{fill:#2E2E2E;}
	.st3{fill:#666666;}
]]>
</style><g id="Layer_2"><g><g><path class="st1" d="M16.033,8.388c0-1.558,1.273-2.832,2.831-2.832h62.273c1.557,0,2.83,1.274,2.83,2.832v83.225     c0,1.558-1.273,2.832-2.83,2.832H18.864c-1.557,0-2.831-1.274-2.831-2.832V8.388z"/><path class="st0" d="M81.137,5.556c1.557,0,2.83,1.274,2.83,2.832v83.225c0,1.558-1.273,2.832-2.83,2.832H18.864     c-1.557,0-2.831-1.274-2.831-2.832V8.388c0-1.558,1.273-2.832,2.831-2.832H81.137 M81.137,5H18.864     c-1.867,0-3.386,1.52-3.386,3.388v83.225c0,1.867,1.519,3.388,3.386,3.388h62.273c1.866,0,3.385-1.521,3.385-3.388V8.388     C84.521,6.52,83.003,5,81.137,5L81.137,5z"/><rect class="st2" height="72.528" width="54.278" x="22.861" y="13.736"/></g><g><path class="st0" d="M50,92c-1.102,0-2-0.896-2-2s0.898-2,2-2c1.102,0,2,0.896,2,2S51.102,92,50,92z M50,88.216     c-0.983,0-1.783,0.8-1.783,1.784s0.8,1.783,1.783,1.783c0.982,0,1.783-0.799,1.783-1.783S50.982,88.216,50,88.216z"/><path class="st0" d="M50.429,90.672h-0.857c-0.135,0-0.243-0.109-0.243-0.244V89.57c0-0.135,0.108-0.243,0.243-0.243h0.857     c0.135,0,0.243,0.108,0.243,0.243v0.857C50.672,90.563,50.563,90.672,50.429,90.672z M49.571,89.489     c-0.045,0-0.081,0.036-0.081,0.081v0.857c0,0.045,0.036,0.081,0.081,0.081h0.857c0.045,0,0.082-0.036,0.082-0.081V89.57     c0-0.045-0.037-0.081-0.082-0.081H49.571z"/></g><circle class="st2" cx="50" cy="9.931" r="0.556"/><circle class="st3" cx="50" cy="9.931" r="0.278"/></g></g></svg>