<?xml version="1.0" ?><!DOCTYPE svg  PUBLIC '-//W3C//DTD SVG 1.1//EN'
        'http://www.w3.org/Graphics/SVG/1.1/DTD/svg11.dtd'>
<svg height="100px" style="enable-background:new 0 0 100 100;" version="1.1" viewBox="0 0 100 100" width="100px" xml:space="preserve" xmlns="http://www.w3.org/2000/svg" xmlns:xlink="http://www.w3.org/1999/xlink"><style type="text/css">
<![CDATA[
	.st0{fill:#B3B3B3;}
	.st1{fill:#1A1A1A;}
	.st2{fill:#F2F2F2;}
	.st3{fill:#2E2E2E;}
	.st4{fill:none;}
	.st5{fill:#666666;}
	.st6{display:inline;}
	.st7{display:none;}
]]>
</style><g class="st7" id="Layer_1"/><g id="Layer_2"><g><g><path class="st2" d="M79.7,90.2c0,2.3-1.9,4.3-4.3,4.3H24.6c-2.3,0-4.3-1.9-4.3-4.3V9.8c0-2.3,1.9-4.3,4.3-4.3h50.8     c2.3,0,4.3,1.9,4.3,4.3V90.2z"/><path class="st0" d="M75.4,5.6c2.3,0,4.3,1.9,4.3,4.3v80.4c0,2.3-1.9,4.3-4.3,4.3H24.6c-2.3,0-4.3-1.9-4.3-4.3V9.8     c0-2.3,1.9-4.3,4.3-4.3H75.4 M75.4,5H24.6c-2.7,0-4.8,2.2-4.8,4.8v80.4c0,2.7,2.2,4.8,4.8,4.8h50.8c2.7,0,4.8-2.2,4.8-4.8V9.8     C80.2,7.2,78,5,75.4,5L75.4,5z"/><rect class="st3" height="70.3" width="53.2" x="23.4" y="14.9"/></g><path class="st0" d="M50,92.1c-1.3,0-2.3-1-2.3-2.3c0-1.3,1-2.3,2.3-2.3s2.3,1,2.3,2.3C52.3,91.1,51.3,92.1,50,92.1z M50,87.8    c-1.1,0-2,0.9-2,2c0,1.1,0.9,2,2,2s2-0.9,2-2C52,88.7,51.1,87.8,50,87.8z"/><circle class="st3" cx="50" cy="10.3" r="0.5"/><circle class="st5" cx="50" cy="10.3" r="0.3"/></g></g></svg>