<?xml version="1.0" ?><!DOCTYPE svg  PUBLIC '-//W3C//DTD SVG 1.1//EN'
        'http://www.w3.org/Graphics/SVG/1.1/DTD/svg11.dtd'>
<svg height="100px" style="enable-background:new 0 0 100 100;" version="1.1" viewBox="0 0 100 100" width="100px" xml:space="preserve" xmlns="http://www.w3.org/2000/svg" ><style type="text/css">
<![CDATA[
	.st0{fill:#B3B3B3;}
	.st1{fill:#1A1A1A;}
	.st2{fill:#F2F2F2;}
	.st3{fill:#2E2E2E;}
	.st4{fill:none;}
	.st5{fill:#666666;}
	.st6{display:inline;}
	.st7{display:none;}
]]>
</style><g class="st7" id="Layer_1"/><g id="Layer_2"><g><g><path class="st2" d="M94.4,76.6c0,3.4-2.8,6.1-6.1,6.1H11.7c-3.4,0-6.1-2.8-6.1-6.1V23.4c0-3.4,2.8-6.1,6.1-6.1h76.6     c3.4,0,6.1,2.8,6.1,6.1V76.6z"/><path class="st0" d="M88.3,17.3c3.4,0,6.1,2.8,6.1,6.1v53.1c0,3.4-2.8,6.1-6.1,6.1H11.7c-3.4,0-6.1-2.8-6.1-6.1V23.4     c0-3.4,2.8-6.1,6.1-6.1H88.3 M88.3,16.7H11.7c-3.7,0-6.7,3-6.7,6.7v53.1c0,3.7,3,6.7,6.7,6.7h76.6c3.7,0,6.7-3,6.7-6.7V23.4     C95,19.7,92,16.7,88.3,16.7L88.3,16.7z"/><rect class="st3" height="51.2" width="80.8" x="9.6" y="24.4"/></g><circle class="st5" cx="39.4" cy="21.4" r="0.4"/><circle class="st3" cx="42.2" cy="21.4" r="0.5"/><circle class="st5" cx="42.2" cy="21.4" r="0.2"/><path class="st0" d="M52.2,79.3c0.3,0,0.5,0.2,0.5,0.5v0.6c0,0.3-0.2,0.5-0.5,0.5h-4.4c-0.3,0-0.5-0.2-0.5-0.5v-0.6    c0-0.3,0.2-0.5,0.5-0.5H52.2 M52.2,79.1h-4.4c-0.4,0-0.7,0.3-0.7,0.7v0.6c0,0.4,0.3,0.7,0.7,0.7h4.4c0.4,0,0.7-0.3,0.7-0.7v-0.6    C52.9,79.4,52.6,79.1,52.2,79.1L52.2,79.1z"/></g></g></svg>