<?xml version="1.0" ?><!DOCTYPE svg  PUBLIC '-//W3C//DTD SVG 1.1//EN'
        'http://www.w3.org/Graphics/SVG/1.1/DTD/svg11.dtd'>
<svg height="100px" style="enable-background:new 0 0 100 100;" version="1.1" viewBox="0 0 100 100" width="100px" xml:space="preserve" xmlns="http://www.w3.org/2000/svg" xmlns:xlink="http://www.w3.org/1999/xlink"><style type="text/css">
<![CDATA[
	.st0{fill:#B3B3B3;}
	.st1{fill:#1A1A1A;}
	.st2{fill:#F2F2F2;}
	.st3{fill:#2E2E2E;}
	.st4{fill:none;}
	.st5{fill:#666666;}
	.st6{display:inline;}
	.st7{display:none;}
]]>
</style><g class="st7" id="Layer_1"/><g id="Layer_2"><g><g><path class="st2" d="M5.556,22.313c0-1.031,0.843-1.874,1.874-1.874H92.57c1.031,0,1.874,0.843,1.874,1.874v55.373     c0,1.031-0.843,1.874-1.874,1.874H7.43c-1.031,0-1.874-0.843-1.874-1.874V22.313z"/><path class="st0" d="M92.57,20.439c1.031,0,1.874,0.843,1.874,1.874v55.373c0,1.031-0.843,1.874-1.874,1.874H7.43     c-1.031,0-1.874-0.843-1.874-1.874V22.313c0-1.031,0.843-1.874,1.874-1.874H92.57 M92.57,19.884H7.43     c-1.34,0-2.43,1.09-2.43,2.43v55.373c0,1.34,1.09,2.43,2.43,2.43H92.57c1.34,0,2.43-1.09,2.43-2.43V22.313     C95,20.974,93.91,19.884,92.57,19.884L92.57,19.884z"/><rect class="st3" height="46.214" width="74.941" x="12.529" y="26.893"/></g><path class="st0" d="M49,75.786l0.813-0.107v0.786H49V75.786z M49.814,76.548v0.785L49,77.226v-0.678H49.814z M49.909,75.655    L51,75.5v0.952l-1.091,0.012V75.655z M51,76.559v0.94l-1.091-0.154v-0.797L51,76.559z"/></g></g></svg>