<?xml version="1.0" ?><!DOCTYPE svg  PUBLIC '-//W3C//DTD SVG 1.1//EN'
        'http://www.w3.org/Graphics/SVG/1.1/DTD/svg11.dtd'>
<svg height="100px" style="enable-background:new 0 0 100 100;" version="1.1" viewBox="0 0 100 100" width="100px" xml:space="preserve" xmlns="http://www.w3.org/2000/svg" xmlns:xlink="http://www.w3.org/1999/xlink"><style type="text/css">
<![CDATA[
	.st0{fill:#B3B3B3;}
	.st1{fill:#1A1A1A;}
	.st2{fill:#F2F2F2;}
	.st3{fill:#2E2E2E;}
	.st4{fill:none;}
	.st5{fill:#666666;}
	.st6{display:inline;}
	.st7{display:none;}
]]>
</style><g class="st7" id="Layer_1"/><g id="Layer_2"><g><g><path class="st2" d="M65.383,5.5H34.617c-3.021,0-5.494,2.472-5.494,5.494v78.012c0,3.022,2.473,5.494,5.494,5.494h30.766     c3.021,0,5.494-2.472,5.494-5.494V10.994C70.877,7.972,68.404,5.5,65.383,5.5z"/><path class="st0" d="M65.383,5.5c3.021,0,5.494,2.472,5.494,5.494v78.012c0,3.022-2.473,5.494-5.494,5.494H34.617     c-3.021,0-5.494-2.472-5.494-5.494V10.994c0-3.022,2.473-5.494,5.494-5.494H65.383 M65.383,5H34.617     c-3.305,0-5.994,2.689-5.994,5.994v78.012c0,3.305,2.689,5.994,5.994,5.994h30.766c3.305,0,5.994-2.689,5.994-5.994V10.994     C71.377,7.689,68.688,5,65.383,5L65.383,5z"/><rect class="st3" height="64.058" width="35.6" x="32.283" y="17.367"/></g><g><path class="st0" d="M50,91.5c-1.93,0-3.5-1.57-3.5-3.5c0-1.93,1.57-3.5,3.5-3.5s3.5,1.569,3.5,3.5     C53.5,89.929,51.93,91.5,50,91.5z M50,84.879c-1.722,0-3.121,1.4-3.121,3.121s1.399,3.12,3.121,3.12s3.121-1.398,3.121-3.12     S51.722,84.879,50,84.879z"/><path class="st0" d="M50.751,89.176h-1.503c-0.234,0-0.425-0.19-0.425-0.426v-1.501c0-0.235,0.191-0.425,0.425-0.425h1.503     c0.234,0,0.425,0.189,0.425,0.425v1.501C51.176,88.985,50.985,89.176,50.751,89.176z M49.249,87.106     c-0.077,0-0.142,0.063-0.142,0.142v1.501c0,0.079,0.064,0.142,0.142,0.142h1.503c0.077,0,0.142-0.063,0.142-0.142v-1.501     c0-0.079-0.064-0.142-0.142-0.142H49.249z"/></g><g><g><circle class="st3" cx="50" cy="10.305" r="0.791"/><circle class="st5" cx="50" cy="10.305" r="0.396"/></g><path class="st3" d="M45.55,13.474c0,0.218-0.177,0.395-0.396,0.395c-0.218,0-0.395-0.177-0.395-0.395     c0-0.22,0.177-0.396,0.395-0.396C45.373,13.078,45.55,13.254,45.55,13.474z M53.46,13.474c0-0.217-0.178-0.396-0.396-0.396h-6.13     c-0.217,0-0.396,0.178-0.396,0.396s0.178,0.395,0.396,0.395h6.13C53.282,13.869,53.46,13.691,53.46,13.474z"/></g></g></g></svg>